<svg id="Laag_1" data-name="Laag 1" xmlns="http://www.w3.org/2000/svg" viewBox="0 0 333.42 198.12"><defs><style>.cls-1{fill:#fff;}.cls-2{fill:#237fec;}.cls-3{fill:#ec4c2f;}</style></defs><path class="cls-1" d="M876.49,639.12H793V441h333.42V639.12H881.31c2.06-.25,4.12-.49,6.18-.77,11.82-1.57,23-5.42,33.86-10.07q96-41.09,192.07-82.24c3.32-1.42,6.63-2.88,10-4.27,1.66-.69,2.91-1.62,2.21-3.6s-2.17-1.9-3.79-1.34c-.15.06-.31.07-.47.12q-63.75,17.22-127.52,34.42c-5.32,1.43-10.76,3.36-16.16,3.42-32.17.32-64.35.16-96.52.16h-3.22c.29-3.7.63-7.1.8-10.51.11-2.1,1.06-2.56,3.06-2.56q43.31.09,86.62,0,21,0,42,0c.84,0,2.12,0,2.45-.48,2.55-3.8,4.91-7.73,7.33-11.61l-.6-.63H883.66c1.47-2.71,2.66-5,4-7.32.87-1.48,1.27-2.89-.33-4s-2.84-.28-4,1c-2.55,2.89-5.23,5.68-7.68,8.66a4.77,4.77,0,0,1-4.13,1.83c-19.38-.06-38.77,0-58.15,0h-3.24c2.2,3.77,4.18,7,6,10.38a4.18,4.18,0,0,0,4.22,2.34c13.43-.11,26.86-.06,40.29-.06h2.77c-2.68,4-5.16,7.55-7.44,11.22a3.31,3.31,0,0,1-3.26,1.83c-7.72-.08-15.44,0-23.16,0h-2.16l-.35.9c3.58,3.06,7.12,6.19,10.8,9.14a6.63,6.63,0,0,0,3.47,1.19c2.5.17,5,.05,7.61.05-1.1,3.64-2.27,6.81-3,10.08a64.08,64.08,0,0,0-1.49,10.22c-.87,15.24,8.36,27.57,23.23,31.14C870.59,638.36,873.56,638.65,876.49,639.12Zm10.35-103.69h56c.06-1,.13-1.75.15-2.54a164.69,164.69,0,0,0-2.41-34.06c-3.06-17.08-8.49-33.28-18.28-47.79-2.19-3.23-4.71-6.24-7.38-9.76C892.8,469.25,886.66,501.28,886.84,535.43Zm69.75,0c.83.08,1.21.14,1.59.14q32.93,0,65.86,0a2.48,2.48,0,0,0,2.61-1.85,147.65,147.65,0,0,0,10-32.38c.8-4.22,1.41-8.48,2.15-13C1005.15,493.47,977,507.23,956.59,535.4ZM793.3,488.18c.11,1.43.15,2.46.27,3.48a158,158,0,0,0,10.61,41.62,3.19,3.19,0,0,0,3.54,2.31c21-.09,41.95-.08,62.92-.1.69,0,1.39-.06,2.49-.11C853.87,507,825.89,494.09,793.3,488.18Z" transform="translate(-793 -441)"/><path class="cls-2" d="M876.49,639.12c-2.93-.47-5.9-.76-8.77-1.45-14.87-3.57-24.1-15.9-23.23-31.14A64.08,64.08,0,0,1,846,596.31c.73-3.27,1.9-6.44,3-10.08-2.58,0-5.11.12-7.61-.05A6.63,6.63,0,0,1,837.9,585c-3.68-3-7.22-6.08-10.8-9.14l.35-.9h2.16c7.72,0,15.44-.05,23.16,0a3.31,3.31,0,0,0,3.26-1.83c2.28-3.67,4.76-7.21,7.44-11.22H860.7c-13.43,0-26.86,0-40.29.06a4.18,4.18,0,0,1-4.22-2.34c-1.85-3.34-3.83-6.61-6-10.38h3.24c19.38,0,38.77,0,58.15,0a4.77,4.77,0,0,0,4.13-1.83c2.45-3,5.13-5.77,7.68-8.66,1.12-1.27,2.38-2.1,4-1s1.2,2.54.33,4c-1.33,2.27-2.52,4.61-4,7.32h135.9l.6.63c-2.42,3.88-4.78,7.81-7.33,11.61-.33.49-1.61.47-2.45.48q-21,0-42,0-43.3,0-86.62,0c-2,0-2.95.46-3.06,2.56-.17,3.41-.51,6.81-.8,10.51h3.22c32.17,0,64.35.16,96.52-.16,5.4-.06,10.84-2,16.16-3.42q63.78-17.14,127.52-34.42c.16-.05.32-.06.47-.12,1.62-.56,3.12-.52,3.79,1.34s-.55,2.91-2.21,3.6c-3.34,1.39-6.65,2.85-10,4.27q-96,41.13-192.07,82.24c-10.89,4.65-22,8.5-33.86,10.07-2.06.28-4.12.52-6.18.77Zm7.69-97.36c-11.39,12.74-22.48,25-30,40a68.61,68.61,0,0,0-6.93,21.45c-2.25,16.16,6.9,29.47,22.86,32.3a59.36,59.36,0,0,0,15.59.4c11.39-1,22.15-4.7,32.61-9.16q93.87-40.11,187.71-80.33l13.42-5.77a5.44,5.44,0,0,0-2.65.18Q1020,567,923.14,593.15c-8.5,2.29-17.12,3.68-26,2.61-11.75-1.42-19.73-9-21.36-20.77-.9-6.43.28-12.68,2.44-18.7C879.91,551.56,882,547,884.18,541.76Zm-.53,44.62a19,19,0,0,0,9.71,6,37.2,37.2,0,0,0,16.71.65c8.42-1.61,16.71-3.83,25.06-5.8a16.64,16.64,0,0,0,1.6-.53l-.12-.33Z" transform="translate(-793 -441)"/><path class="cls-2" d="M886.84,535.43c-.18-34.15,6-66.18,28.1-94.15,2.67,3.52,5.19,6.53,7.38,9.76,9.79,14.51,15.22,30.71,18.28,47.79A164.69,164.69,0,0,1,943,532.89c0,.79-.09,1.58-.15,2.54Z" transform="translate(-793 -441)"/><path class="cls-2" d="M956.59,535.4c20.43-28.17,48.56-41.93,82.19-47.09-.74,4.56-1.35,8.82-2.15,13a147.65,147.65,0,0,1-10,32.38,2.48,2.48,0,0,1-2.61,1.85q-32.92-.08-65.86,0C957.8,535.54,957.42,535.48,956.59,535.4Z" transform="translate(-793 -441)"/><path class="cls-2" d="M793.3,488.18c32.59,5.91,60.57,18.79,79.83,47.2-1.1,0-1.8.11-2.49.11-21,0-41.95,0-62.92.1a3.19,3.19,0,0,1-3.54-2.31,158,158,0,0,1-10.61-41.62C793.45,490.64,793.41,489.61,793.3,488.18Z" transform="translate(-793 -441)"/><path class="cls-3" d="M884.18,541.76c-2.16,5.22-4.27,9.8-6,14.53-2.16,6-3.34,12.27-2.44,18.7,1.63,11.72,9.61,19.35,21.36,20.77,8.88,1.07,17.5-.32,26-2.61Q1020,567,1116.77,540.82a5.44,5.44,0,0,1,2.65-.18L1106,546.41q-93.85,40.17-187.71,80.33c-10.46,4.46-21.22,8.13-32.61,9.16a59.36,59.36,0,0,1-15.59-.4c-16-2.83-25.11-16.14-22.86-32.3a68.61,68.61,0,0,1,6.93-21.45C861.7,566.8,872.79,554.5,884.18,541.76Z" transform="translate(-793 -441)"/><path class="cls-1" d="M883.65,586.38h53l.12.33a16.64,16.64,0,0,1-1.6.53c-8.35,2-16.64,4.19-25.06,5.8a37.2,37.2,0,0,1-16.71-.65A19,19,0,0,1,883.65,586.38Z" transform="translate(-793 -441)"/></svg>